<mxfile host="app.diagrams.net" agent="Mozilla/5.0 (Macintosh; Intel Mac OS X 10_15_7) AppleWebKit/605.1.15 (KHTML, like Gecko) Version/17.6 Safari/605.1.15" version="24.7.12">
  <diagram name="第 1 页" id="bW88cxvAg1-Nq7jleOaH">
    <mxGraphModel dx="1600" dy="1722" grid="1" gridSize="10" guides="1" tooltips="1" connect="1" arrows="1" fold="1" page="1" pageScale="1" pageWidth="827" pageHeight="1169" math="0" shadow="0">
      <root>
        <mxCell id="0" />
        <mxCell id="1" parent="0" />
        <mxCell id="MGUii8pSheX-gaGxtP5t-1" value="" style="sketch=0;outlineConnect=0;fontColor=#232F3E;gradientColor=none;fillColor=#232F3D;strokeColor=none;dashed=0;verticalLabelPosition=bottom;verticalAlign=top;align=center;html=1;fontSize=12;fontStyle=0;aspect=fixed;pointerEvents=1;shape=mxgraph.aws4.user;" vertex="1" parent="1">
          <mxGeometry x="-438" y="-140" width="78" height="78" as="geometry" />
        </mxCell>
        <mxCell id="MGUii8pSheX-gaGxtP5t-2" value="Developers" style="text;html=1;align=center;verticalAlign=middle;resizable=0;points=[];autosize=1;strokeColor=none;fillColor=none;" vertex="1" parent="1">
          <mxGeometry x="-438" y="-62" width="80" height="30" as="geometry" />
        </mxCell>
        <mxCell id="MGUii8pSheX-gaGxtP5t-3" value="AWS Cloud" style="points=[[0,0],[0.25,0],[0.5,0],[0.75,0],[1,0],[1,0.25],[1,0.5],[1,0.75],[1,1],[0.75,1],[0.5,1],[0.25,1],[0,1],[0,0.75],[0,0.5],[0,0.25]];outlineConnect=0;gradientColor=none;html=1;whiteSpace=wrap;fontSize=12;fontStyle=0;container=1;pointerEvents=0;collapsible=0;recursiveResize=0;shape=mxgraph.aws4.group;grIcon=mxgraph.aws4.group_aws_cloud_alt;strokeColor=#232F3E;fillColor=none;verticalAlign=top;align=left;spacingLeft=30;fontColor=#232F3E;dashed=0;" vertex="1" parent="1">
          <mxGeometry x="-50" y="-250" width="1680" height="1230" as="geometry" />
        </mxCell>
        <mxCell id="MGUii8pSheX-gaGxtP5t-4" value="" style="sketch=0;points=[[0,0,0],[0.25,0,0],[0.5,0,0],[0.75,0,0],[1,0,0],[0,1,0],[0.25,1,0],[0.5,1,0],[0.75,1,0],[1,1,0],[0,0.25,0],[0,0.5,0],[0,0.75,0],[1,0.25,0],[1,0.5,0],[1,0.75,0]];points=[[0,0,0],[0.25,0,0],[0.5,0,0],[0.75,0,0],[1,0,0],[0,1,0],[0.25,1,0],[0.5,1,0],[0.75,1,0],[1,1,0],[0,0.25,0],[0,0.5,0],[0,0.75,0],[1,0.25,0],[1,0.5,0],[1,0.75,0]];outlineConnect=0;fontColor=#232F3E;fillColor=#E7157B;strokeColor=#ffffff;dashed=0;verticalLabelPosition=bottom;verticalAlign=top;align=center;html=1;fontSize=12;fontStyle=0;aspect=fixed;shape=mxgraph.aws4.resourceIcon;resIcon=mxgraph.aws4.cloudwatch_2;" vertex="1" parent="MGUii8pSheX-gaGxtP5t-3">
          <mxGeometry x="1410" y="20" width="78" height="78" as="geometry" />
        </mxCell>
        <mxCell id="MGUii8pSheX-gaGxtP5t-5" value="AWS CloudWatch" style="text;html=1;align=center;verticalAlign=middle;resizable=0;points=[];autosize=1;strokeColor=none;fillColor=none;" vertex="1" parent="MGUii8pSheX-gaGxtP5t-3">
          <mxGeometry x="1380" y="110" width="120" height="30" as="geometry" />
        </mxCell>
        <mxCell id="MGUii8pSheX-gaGxtP5t-6" value="RDS" style="text;html=1;align=center;verticalAlign=middle;resizable=0;points=[];autosize=1;strokeColor=none;fillColor=none;" vertex="1" parent="MGUii8pSheX-gaGxtP5t-3">
          <mxGeometry x="1003" y="388" width="50" height="30" as="geometry" />
        </mxCell>
        <mxCell id="MGUii8pSheX-gaGxtP5t-7" style="edgeStyle=orthogonalEdgeStyle;rounded=0;orthogonalLoop=1;jettySize=auto;html=1;" edge="1" parent="MGUii8pSheX-gaGxtP5t-3" source="MGUii8pSheX-gaGxtP5t-8" target="MGUii8pSheX-gaGxtP5t-9">
          <mxGeometry relative="1" as="geometry" />
        </mxCell>
        <mxCell id="MGUii8pSheX-gaGxtP5t-8" value="" style="sketch=0;points=[[0,0,0],[0.25,0,0],[0.5,0,0],[0.75,0,0],[1,0,0],[0,1,0],[0.25,1,0],[0.5,1,0],[0.75,1,0],[1,1,0],[0,0.25,0],[0,0.5,0],[0,0.75,0],[1,0.25,0],[1,0.5,0],[1,0.75,0]];outlineConnect=0;fontColor=#232F3E;fillColor=#ED7100;strokeColor=#ffffff;dashed=0;verticalLabelPosition=bottom;verticalAlign=top;align=center;html=1;fontSize=12;fontStyle=0;aspect=fixed;shape=mxgraph.aws4.resourceIcon;resIcon=mxgraph.aws4.lambda;" vertex="1" parent="MGUii8pSheX-gaGxtP5t-3">
          <mxGeometry x="767" y="298" width="78" height="78" as="geometry" />
        </mxCell>
        <mxCell id="MGUii8pSheX-gaGxtP5t-9" value="" style="sketch=0;points=[[0,0,0],[0.25,0,0],[0.5,0,0],[0.75,0,0],[1,0,0],[0,1,0],[0.25,1,0],[0.5,1,0],[0.75,1,0],[1,1,0],[0,0.25,0],[0,0.5,0],[0,0.75,0],[1,0.25,0],[1,0.5,0],[1,0.75,0]];outlineConnect=0;fontColor=#232F3E;fillColor=#C925D1;strokeColor=#ffffff;dashed=0;verticalLabelPosition=bottom;verticalAlign=top;align=center;html=1;fontSize=12;fontStyle=0;aspect=fixed;shape=mxgraph.aws4.resourceIcon;resIcon=mxgraph.aws4.rds;" vertex="1" parent="MGUii8pSheX-gaGxtP5t-3">
          <mxGeometry x="991" y="298" width="78" height="78" as="geometry" />
        </mxCell>
        <mxCell id="MGUii8pSheX-gaGxtP5t-10" style="edgeStyle=orthogonalEdgeStyle;rounded=0;orthogonalLoop=1;jettySize=auto;html=1;" edge="1" parent="MGUii8pSheX-gaGxtP5t-3" source="MGUii8pSheX-gaGxtP5t-11" target="MGUii8pSheX-gaGxtP5t-8">
          <mxGeometry relative="1" as="geometry" />
        </mxCell>
        <mxCell id="MGUii8pSheX-gaGxtP5t-11" value="" style="sketch=0;points=[[0,0,0],[0.25,0,0],[0.5,0,0],[0.75,0,0],[1,0,0],[0,1,0],[0.25,1,0],[0.5,1,0],[0.75,1,0],[1,1,0],[0,0.25,0],[0,0.5,0],[0,0.75,0],[1,0.25,0],[1,0.5,0],[1,0.75,0]];outlineConnect=0;fontColor=#232F3E;fillColor=#E7157B;strokeColor=#ffffff;dashed=0;verticalLabelPosition=bottom;verticalAlign=top;align=center;html=1;fontSize=12;fontStyle=0;aspect=fixed;shape=mxgraph.aws4.resourceIcon;resIcon=mxgraph.aws4.sqs;" vertex="1" parent="MGUii8pSheX-gaGxtP5t-3">
          <mxGeometry x="571" y="298" width="78" height="78" as="geometry" />
        </mxCell>
        <mxCell id="MGUii8pSheX-gaGxtP5t-12" value="Amazon SQS" style="text;html=1;align=center;verticalAlign=middle;resizable=0;points=[];autosize=1;strokeColor=none;fillColor=none;" vertex="1" parent="MGUii8pSheX-gaGxtP5t-3">
          <mxGeometry x="560" y="388" width="100" height="30" as="geometry" />
        </mxCell>
        <mxCell id="MGUii8pSheX-gaGxtP5t-13" value="Amazon L&lt;span style=&quot;background-color: initial;&quot;&gt;ambda&lt;/span&gt;" style="text;html=1;align=center;verticalAlign=middle;resizable=0;points=[];autosize=1;strokeColor=none;fillColor=none;" vertex="1" parent="MGUii8pSheX-gaGxtP5t-3">
          <mxGeometry x="751" y="378" width="110" height="30" as="geometry" />
        </mxCell>
        <mxCell id="MGUii8pSheX-gaGxtP5t-14" value="Processing Task" style="text;html=1;align=center;verticalAlign=middle;resizable=0;points=[];autosize=1;strokeColor=none;fillColor=none;" vertex="1" parent="MGUii8pSheX-gaGxtP5t-3">
          <mxGeometry x="652" y="338" width="110" height="30" as="geometry" />
        </mxCell>
        <mxCell id="MGUii8pSheX-gaGxtP5t-15" value="F&lt;span style=&quot;background-color: initial;&quot;&gt;ailed&amp;nbsp; Task&lt;/span&gt;" style="text;html=1;align=center;verticalAlign=middle;resizable=0;points=[];autosize=1;strokeColor=none;fillColor=none;" vertex="1" parent="MGUii8pSheX-gaGxtP5t-3">
          <mxGeometry x="865" y="408" width="90" height="30" as="geometry" />
        </mxCell>
        <mxCell id="MGUii8pSheX-gaGxtP5t-16" value="Clear Completed Task" style="text;html=1;align=center;verticalAlign=middle;resizable=0;points=[];autosize=1;strokeColor=none;fillColor=none;" vertex="1" parent="MGUii8pSheX-gaGxtP5t-3">
          <mxGeometry x="632" y="248" width="140" height="30" as="geometry" />
        </mxCell>
        <mxCell id="MGUii8pSheX-gaGxtP5t-17" value="Amazon SageMaker" style="text;html=1;align=center;verticalAlign=middle;resizable=0;points=[];autosize=1;strokeColor=none;fillColor=none;" vertex="1" parent="MGUii8pSheX-gaGxtP5t-3">
          <mxGeometry x="1110" y="248" width="130" height="30" as="geometry" />
        </mxCell>
        <mxCell id="MGUii8pSheX-gaGxtP5t-18" value="Learn and Manage Amazon Lambda resources" style="text;html=1;align=center;verticalAlign=middle;resizable=0;points=[];autosize=1;strokeColor=none;fillColor=none;" vertex="1" parent="MGUii8pSheX-gaGxtP5t-3">
          <mxGeometry x="825" y="218" width="270" height="30" as="geometry" />
        </mxCell>
        <mxCell id="MGUii8pSheX-gaGxtP5t-19" style="edgeStyle=orthogonalEdgeStyle;rounded=0;orthogonalLoop=1;jettySize=auto;html=1;entryX=0;entryY=0.75;entryDx=0;entryDy=0;entryPerimeter=0;exitX=1;exitY=0.75;exitDx=0;exitDy=0;exitPerimeter=0;" edge="1" parent="MGUii8pSheX-gaGxtP5t-3" source="MGUii8pSheX-gaGxtP5t-8" target="MGUii8pSheX-gaGxtP5t-57">
          <mxGeometry relative="1" as="geometry">
            <Array as="points">
              <mxPoint x="865" y="357" />
              <mxPoint x="865" y="517" />
            </Array>
          </mxGeometry>
        </mxCell>
        <mxCell id="MGUii8pSheX-gaGxtP5t-20" style="edgeStyle=orthogonalEdgeStyle;rounded=0;orthogonalLoop=1;jettySize=auto;html=1;entryX=0.5;entryY=0;entryDx=0;entryDy=0;entryPerimeter=0;" edge="1" parent="MGUii8pSheX-gaGxtP5t-3" source="MGUii8pSheX-gaGxtP5t-8" target="MGUii8pSheX-gaGxtP5t-11">
          <mxGeometry relative="1" as="geometry">
            <Array as="points">
              <mxPoint x="806" y="278" />
              <mxPoint x="610" y="278" />
            </Array>
          </mxGeometry>
        </mxCell>
        <mxCell id="MGUii8pSheX-gaGxtP5t-21" style="edgeStyle=orthogonalEdgeStyle;rounded=0;orthogonalLoop=1;jettySize=auto;html=1;entryX=0.639;entryY=0.004;entryDx=0;entryDy=0;entryPerimeter=0;startArrow=classic;startFill=1;" edge="1" parent="MGUii8pSheX-gaGxtP5t-3" source="MGUii8pSheX-gaGxtP5t-23" target="MGUii8pSheX-gaGxtP5t-8">
          <mxGeometry relative="1" as="geometry" />
        </mxCell>
        <mxCell id="MGUii8pSheX-gaGxtP5t-22" style="edgeStyle=orthogonalEdgeStyle;rounded=0;orthogonalLoop=1;jettySize=auto;html=1;" edge="1" parent="MGUii8pSheX-gaGxtP5t-3" source="MGUii8pSheX-gaGxtP5t-23" target="MGUii8pSheX-gaGxtP5t-48">
          <mxGeometry relative="1" as="geometry" />
        </mxCell>
        <mxCell id="MGUii8pSheX-gaGxtP5t-23" value="" style="sketch=0;points=[[0,0,0],[0.25,0,0],[0.5,0,0],[0.75,0,0],[1,0,0],[0,1,0],[0.25,1,0],[0.5,1,0],[0.75,1,0],[1,1,0],[0,0.25,0],[0,0.5,0],[0,0.75,0],[1,0.25,0],[1,0.5,0],[1,0.75,0]];outlineConnect=0;fontColor=#232F3E;fillColor=#01A88D;strokeColor=#ffffff;dashed=0;verticalLabelPosition=bottom;verticalAlign=top;align=center;html=1;fontSize=12;fontStyle=0;aspect=fixed;shape=mxgraph.aws4.resourceIcon;resIcon=mxgraph.aws4.sagemaker;" vertex="1" parent="MGUii8pSheX-gaGxtP5t-3">
          <mxGeometry x="1140" y="170" width="78" height="78" as="geometry" />
        </mxCell>
        <mxCell id="MGUii8pSheX-gaGxtP5t-24" value="VPC" style="points=[[0,0],[0.25,0],[0.5,0],[0.75,0],[1,0],[1,0.25],[1,0.5],[1,0.75],[1,1],[0.75,1],[0.5,1],[0.25,1],[0,1],[0,0.75],[0,0.5],[0,0.25]];outlineConnect=0;gradientColor=none;html=1;whiteSpace=wrap;fontSize=12;fontStyle=0;container=1;pointerEvents=0;collapsible=0;recursiveResize=0;shape=mxgraph.aws4.group;grIcon=mxgraph.aws4.group_vpc2;strokeColor=#8C4FFF;fillColor=none;verticalAlign=top;align=left;spacingLeft=30;fontColor=#AAB7B8;dashed=0;" vertex="1" parent="MGUii8pSheX-gaGxtP5t-3">
          <mxGeometry x="420" y="730" width="850" height="450" as="geometry" />
        </mxCell>
        <mxCell id="MGUii8pSheX-gaGxtP5t-25" value="Blue Environment" style="text;html=1;align=center;verticalAlign=middle;resizable=0;points=[];autosize=1;strokeColor=none;fillColor=none;" vertex="1" parent="MGUii8pSheX-gaGxtP5t-24">
          <mxGeometry x="150" y="10" width="120" height="30" as="geometry" />
        </mxCell>
        <mxCell id="MGUii8pSheX-gaGxtP5t-26" value="RDS" style="text;html=1;align=center;verticalAlign=middle;resizable=0;points=[];autosize=1;strokeColor=none;fillColor=none;" vertex="1" parent="MGUii8pSheX-gaGxtP5t-3">
          <mxGeometry x="1003" y="958" width="50" height="30" as="geometry" />
        </mxCell>
        <mxCell id="MGUii8pSheX-gaGxtP5t-27" style="edgeStyle=orthogonalEdgeStyle;rounded=0;orthogonalLoop=1;jettySize=auto;html=1;" edge="1" parent="MGUii8pSheX-gaGxtP5t-3" source="MGUii8pSheX-gaGxtP5t-28" target="MGUii8pSheX-gaGxtP5t-29">
          <mxGeometry relative="1" as="geometry" />
        </mxCell>
        <mxCell id="MGUii8pSheX-gaGxtP5t-28" value="" style="sketch=0;points=[[0,0,0],[0.25,0,0],[0.5,0,0],[0.75,0,0],[1,0,0],[0,1,0],[0.25,1,0],[0.5,1,0],[0.75,1,0],[1,1,0],[0,0.25,0],[0,0.5,0],[0,0.75,0],[1,0.25,0],[1,0.5,0],[1,0.75,0]];outlineConnect=0;fontColor=#232F3E;fillColor=#ED7100;strokeColor=#ffffff;dashed=0;verticalLabelPosition=bottom;verticalAlign=top;align=center;html=1;fontSize=12;fontStyle=0;aspect=fixed;shape=mxgraph.aws4.resourceIcon;resIcon=mxgraph.aws4.lambda;" vertex="1" parent="MGUii8pSheX-gaGxtP5t-3">
          <mxGeometry x="767" y="868" width="78" height="78" as="geometry" />
        </mxCell>
        <mxCell id="MGUii8pSheX-gaGxtP5t-29" value="" style="sketch=0;points=[[0,0,0],[0.25,0,0],[0.5,0,0],[0.75,0,0],[1,0,0],[0,1,0],[0.25,1,0],[0.5,1,0],[0.75,1,0],[1,1,0],[0,0.25,0],[0,0.5,0],[0,0.75,0],[1,0.25,0],[1,0.5,0],[1,0.75,0]];outlineConnect=0;fontColor=#232F3E;fillColor=#C925D1;strokeColor=#ffffff;dashed=0;verticalLabelPosition=bottom;verticalAlign=top;align=center;html=1;fontSize=12;fontStyle=0;aspect=fixed;shape=mxgraph.aws4.resourceIcon;resIcon=mxgraph.aws4.rds;" vertex="1" parent="MGUii8pSheX-gaGxtP5t-3">
          <mxGeometry x="991" y="868" width="78" height="78" as="geometry" />
        </mxCell>
        <mxCell id="MGUii8pSheX-gaGxtP5t-30" style="edgeStyle=orthogonalEdgeStyle;rounded=0;orthogonalLoop=1;jettySize=auto;html=1;" edge="1" parent="MGUii8pSheX-gaGxtP5t-3" source="MGUii8pSheX-gaGxtP5t-31" target="MGUii8pSheX-gaGxtP5t-28">
          <mxGeometry relative="1" as="geometry" />
        </mxCell>
        <mxCell id="MGUii8pSheX-gaGxtP5t-31" value="" style="sketch=0;points=[[0,0,0],[0.25,0,0],[0.5,0,0],[0.75,0,0],[1,0,0],[0,1,0],[0.25,1,0],[0.5,1,0],[0.75,1,0],[1,1,0],[0,0.25,0],[0,0.5,0],[0,0.75,0],[1,0.25,0],[1,0.5,0],[1,0.75,0]];outlineConnect=0;fontColor=#232F3E;fillColor=#E7157B;strokeColor=#ffffff;dashed=0;verticalLabelPosition=bottom;verticalAlign=top;align=center;html=1;fontSize=12;fontStyle=0;aspect=fixed;shape=mxgraph.aws4.resourceIcon;resIcon=mxgraph.aws4.sqs;" vertex="1" parent="MGUii8pSheX-gaGxtP5t-3">
          <mxGeometry x="571" y="868" width="78" height="78" as="geometry" />
        </mxCell>
        <mxCell id="MGUii8pSheX-gaGxtP5t-32" value="Amazon SQS" style="text;html=1;align=center;verticalAlign=middle;resizable=0;points=[];autosize=1;strokeColor=none;fillColor=none;" vertex="1" parent="MGUii8pSheX-gaGxtP5t-3">
          <mxGeometry x="560" y="958" width="100" height="30" as="geometry" />
        </mxCell>
        <mxCell id="MGUii8pSheX-gaGxtP5t-33" value="" style="sketch=0;points=[[0,0,0],[0.25,0,0],[0.5,0,0],[0.75,0,0],[1,0,0],[0,1,0],[0.25,1,0],[0.5,1,0],[0.75,1,0],[1,1,0],[0,0.25,0],[0,0.5,0],[0,0.75,0],[1,0.25,0],[1,0.5,0],[1,0.75,0]];outlineConnect=0;fontColor=#232F3E;fillColor=#E7157B;strokeColor=#ffffff;dashed=0;verticalLabelPosition=bottom;verticalAlign=top;align=center;html=1;fontSize=12;fontStyle=0;aspect=fixed;shape=mxgraph.aws4.resourceIcon;resIcon=mxgraph.aws4.sqs;" vertex="1" parent="MGUii8pSheX-gaGxtP5t-3">
          <mxGeometry x="767" y="1028" width="78" height="78" as="geometry" />
        </mxCell>
        <mxCell id="MGUii8pSheX-gaGxtP5t-34" value="Amazon L&lt;span style=&quot;background-color: initial;&quot;&gt;ambda&lt;/span&gt;" style="text;html=1;align=center;verticalAlign=middle;resizable=0;points=[];autosize=1;strokeColor=none;fillColor=none;" vertex="1" parent="MGUii8pSheX-gaGxtP5t-3">
          <mxGeometry x="751" y="948" width="110" height="30" as="geometry" />
        </mxCell>
        <mxCell id="MGUii8pSheX-gaGxtP5t-35" value="Dead Letter Queue" style="text;html=1;align=center;verticalAlign=middle;resizable=0;points=[];autosize=1;strokeColor=none;fillColor=none;" vertex="1" parent="MGUii8pSheX-gaGxtP5t-3">
          <mxGeometry x="735" y="1119" width="130" height="30" as="geometry" />
        </mxCell>
        <mxCell id="MGUii8pSheX-gaGxtP5t-36" value="Processing Task" style="text;html=1;align=center;verticalAlign=middle;resizable=0;points=[];autosize=1;strokeColor=none;fillColor=none;" vertex="1" parent="MGUii8pSheX-gaGxtP5t-3">
          <mxGeometry x="652" y="908" width="110" height="30" as="geometry" />
        </mxCell>
        <mxCell id="MGUii8pSheX-gaGxtP5t-37" value="F&lt;span style=&quot;background-color: initial;&quot;&gt;ailed&amp;nbsp; Task&lt;/span&gt;" style="text;html=1;align=center;verticalAlign=middle;resizable=0;points=[];autosize=1;strokeColor=none;fillColor=none;" vertex="1" parent="MGUii8pSheX-gaGxtP5t-3">
          <mxGeometry x="865" y="978" width="90" height="30" as="geometry" />
        </mxCell>
        <mxCell id="MGUii8pSheX-gaGxtP5t-38" value="Clear Completed Task" style="text;html=1;align=center;verticalAlign=middle;resizable=0;points=[];autosize=1;strokeColor=none;fillColor=none;" vertex="1" parent="MGUii8pSheX-gaGxtP5t-3">
          <mxGeometry x="632" y="818" width="140" height="30" as="geometry" />
        </mxCell>
        <mxCell id="MGUii8pSheX-gaGxtP5t-39" value="Amazon SageMaker" style="text;html=1;align=center;verticalAlign=middle;resizable=0;points=[];autosize=1;strokeColor=none;fillColor=none;" vertex="1" parent="MGUii8pSheX-gaGxtP5t-3">
          <mxGeometry x="1110" y="818" width="130" height="30" as="geometry" />
        </mxCell>
        <mxCell id="MGUii8pSheX-gaGxtP5t-40" value="Learn and Manage Amazon Lambda resources" style="text;html=1;align=center;verticalAlign=middle;resizable=0;points=[];autosize=1;strokeColor=none;fillColor=none;" vertex="1" parent="MGUii8pSheX-gaGxtP5t-3">
          <mxGeometry x="825" y="788" width="270" height="30" as="geometry" />
        </mxCell>
        <mxCell id="MGUii8pSheX-gaGxtP5t-41" style="edgeStyle=orthogonalEdgeStyle;rounded=0;orthogonalLoop=1;jettySize=auto;html=1;entryX=1;entryY=0.75;entryDx=0;entryDy=0;entryPerimeter=0;exitX=1;exitY=0.75;exitDx=0;exitDy=0;exitPerimeter=0;" edge="1" parent="MGUii8pSheX-gaGxtP5t-3" source="MGUii8pSheX-gaGxtP5t-28" target="MGUii8pSheX-gaGxtP5t-33">
          <mxGeometry relative="1" as="geometry">
            <Array as="points">
              <mxPoint x="865" y="927" />
              <mxPoint x="865" y="1087" />
            </Array>
          </mxGeometry>
        </mxCell>
        <mxCell id="MGUii8pSheX-gaGxtP5t-42" style="edgeStyle=orthogonalEdgeStyle;rounded=0;orthogonalLoop=1;jettySize=auto;html=1;entryX=0.5;entryY=0;entryDx=0;entryDy=0;entryPerimeter=0;" edge="1" parent="MGUii8pSheX-gaGxtP5t-3" source="MGUii8pSheX-gaGxtP5t-28" target="MGUii8pSheX-gaGxtP5t-31">
          <mxGeometry relative="1" as="geometry">
            <Array as="points">
              <mxPoint x="806" y="848" />
              <mxPoint x="610" y="848" />
            </Array>
          </mxGeometry>
        </mxCell>
        <mxCell id="MGUii8pSheX-gaGxtP5t-43" style="edgeStyle=orthogonalEdgeStyle;rounded=0;orthogonalLoop=1;jettySize=auto;html=1;entryX=0.639;entryY=0.004;entryDx=0;entryDy=0;entryPerimeter=0;startArrow=classic;startFill=1;" edge="1" parent="MGUii8pSheX-gaGxtP5t-3" source="MGUii8pSheX-gaGxtP5t-45" target="MGUii8pSheX-gaGxtP5t-28">
          <mxGeometry relative="1" as="geometry" />
        </mxCell>
        <mxCell id="MGUii8pSheX-gaGxtP5t-44" style="edgeStyle=orthogonalEdgeStyle;rounded=0;orthogonalLoop=1;jettySize=auto;html=1;" edge="1" parent="MGUii8pSheX-gaGxtP5t-3" source="MGUii8pSheX-gaGxtP5t-45" target="MGUii8pSheX-gaGxtP5t-48">
          <mxGeometry relative="1" as="geometry" />
        </mxCell>
        <mxCell id="MGUii8pSheX-gaGxtP5t-45" value="" style="sketch=0;points=[[0,0,0],[0.25,0,0],[0.5,0,0],[0.75,0,0],[1,0,0],[0,1,0],[0.25,1,0],[0.5,1,0],[0.75,1,0],[1,1,0],[0,0.25,0],[0,0.5,0],[0,0.75,0],[1,0.25,0],[1,0.5,0],[1,0.75,0]];outlineConnect=0;fontColor=#232F3E;fillColor=#01A88D;strokeColor=#ffffff;dashed=0;verticalLabelPosition=bottom;verticalAlign=top;align=center;html=1;fontSize=12;fontStyle=0;aspect=fixed;shape=mxgraph.aws4.resourceIcon;resIcon=mxgraph.aws4.sagemaker;" vertex="1" parent="MGUii8pSheX-gaGxtP5t-3">
          <mxGeometry x="1140" y="740" width="78" height="78" as="geometry" />
        </mxCell>
        <mxCell id="MGUii8pSheX-gaGxtP5t-46" value="Amazon CloudFront" style="text;html=1;align=center;verticalAlign=middle;resizable=0;points=[];autosize=1;strokeColor=none;fillColor=none;" vertex="1" parent="MGUii8pSheX-gaGxtP5t-3">
          <mxGeometry x="273" y="638" width="130" height="30" as="geometry" />
        </mxCell>
        <mxCell id="MGUii8pSheX-gaGxtP5t-47" value="WAF" style="text;html=1;align=center;verticalAlign=middle;resizable=0;points=[];autosize=1;strokeColor=none;fillColor=none;" vertex="1" parent="MGUii8pSheX-gaGxtP5t-3">
          <mxGeometry x="181.5" y="638" width="50" height="30" as="geometry" />
        </mxCell>
        <mxCell id="MGUii8pSheX-gaGxtP5t-48" value="" style="sketch=0;points=[[0,0,0],[0.25,0,0],[0.5,0,0],[0.75,0,0],[1,0,0],[0,1,0],[0.25,1,0],[0.5,1,0],[0.75,1,0],[1,1,0],[0,0.25,0],[0,0.5,0],[0,0.75,0],[1,0.25,0],[1,0.5,0],[1,0.75,0]];outlineConnect=0;fontColor=#232F3E;fillColor=#7AA116;strokeColor=#ffffff;dashed=0;verticalLabelPosition=bottom;verticalAlign=top;align=center;html=1;fontSize=12;fontStyle=0;aspect=fixed;shape=mxgraph.aws4.resourceIcon;resIcon=mxgraph.aws4.s3;" vertex="1" parent="MGUii8pSheX-gaGxtP5t-3">
          <mxGeometry x="1360" y="630" width="78" height="78" as="geometry" />
        </mxCell>
        <mxCell id="MGUii8pSheX-gaGxtP5t-49" value="Storing ML Data" style="text;html=1;align=center;verticalAlign=middle;resizable=0;points=[];autosize=1;strokeColor=none;fillColor=none;" vertex="1" parent="MGUii8pSheX-gaGxtP5t-3">
          <mxGeometry x="1280" y="570" width="110" height="30" as="geometry" />
        </mxCell>
        <mxCell id="MGUii8pSheX-gaGxtP5t-50" value="Storing ML Data" style="text;html=1;align=center;verticalAlign=middle;resizable=0;points=[];autosize=1;strokeColor=none;fillColor=none;" vertex="1" parent="MGUii8pSheX-gaGxtP5t-3">
          <mxGeometry x="1280" y="730" width="110" height="30" as="geometry" />
        </mxCell>
        <mxCell id="MGUii8pSheX-gaGxtP5t-51" style="edgeStyle=orthogonalEdgeStyle;rounded=0;orthogonalLoop=1;jettySize=auto;html=1;startArrow=classic;startFill=1;" edge="1" parent="MGUii8pSheX-gaGxtP5t-3" source="MGUii8pSheX-gaGxtP5t-52" target="MGUii8pSheX-gaGxtP5t-80">
          <mxGeometry relative="1" as="geometry">
            <Array as="points">
              <mxPoint x="240" y="340" />
              <mxPoint x="240" y="172" />
            </Array>
          </mxGeometry>
        </mxCell>
        <mxCell id="MGUii8pSheX-gaGxtP5t-52" value="" style="sketch=0;points=[[0,0,0],[0.25,0,0],[0.5,0,0],[0.75,0,0],[1,0,0],[0,1,0],[0.25,1,0],[0.5,1,0],[0.75,1,0],[1,1,0],[0,0.25,0],[0,0.5,0],[0,0.75,0],[1,0.25,0],[1,0.5,0],[1,0.75,0]];outlineConnect=0;fontColor=#232F3E;fillColor=#C925D1;strokeColor=#ffffff;dashed=0;verticalLabelPosition=bottom;verticalAlign=top;align=center;html=1;fontSize=12;fontStyle=0;aspect=fixed;shape=mxgraph.aws4.resourceIcon;resIcon=mxgraph.aws4.codepipeline;" vertex="1" parent="MGUii8pSheX-gaGxtP5t-3">
          <mxGeometry x="44" y="284" width="78" height="78" as="geometry" />
        </mxCell>
        <mxCell id="MGUii8pSheX-gaGxtP5t-53" style="edgeStyle=orthogonalEdgeStyle;rounded=0;orthogonalLoop=1;jettySize=auto;html=1;exitX=1;exitY=0.5;exitDx=0;exitDy=0;exitPerimeter=0;" edge="1" parent="MGUii8pSheX-gaGxtP5t-3" source="MGUii8pSheX-gaGxtP5t-63" target="MGUii8pSheX-gaGxtP5t-11">
          <mxGeometry relative="1" as="geometry">
            <Array as="points">
              <mxPoint x="340" y="601" />
              <mxPoint x="610" y="600" />
            </Array>
            <mxPoint x="339.5" y="603" as="sourcePoint" />
          </mxGeometry>
        </mxCell>
        <mxCell id="MGUii8pSheX-gaGxtP5t-54" value="VPC" style="points=[[0,0],[0.25,0],[0.5,0],[0.75,0],[1,0],[1,0.25],[1,0.5],[1,0.75],[1,1],[0.75,1],[0.5,1],[0.25,1],[0,1],[0,0.75],[0,0.5],[0,0.25]];outlineConnect=0;gradientColor=none;html=1;whiteSpace=wrap;fontSize=12;fontStyle=0;container=1;pointerEvents=0;collapsible=0;recursiveResize=0;shape=mxgraph.aws4.group;grIcon=mxgraph.aws4.group_vpc2;strokeColor=#8C4FFF;fillColor=none;verticalAlign=top;align=left;spacingLeft=30;fontColor=#AAB7B8;dashed=0;" vertex="1" parent="MGUii8pSheX-gaGxtP5t-3">
          <mxGeometry x="420" y="160" width="830" height="450" as="geometry" />
        </mxCell>
        <mxCell id="MGUii8pSheX-gaGxtP5t-55" value="Green Environment" style="text;html=1;align=center;verticalAlign=middle;resizable=0;points=[];autosize=1;strokeColor=none;fillColor=none;" vertex="1" parent="MGUii8pSheX-gaGxtP5t-54">
          <mxGeometry x="142" width="130" height="30" as="geometry" />
        </mxCell>
        <mxCell id="MGUii8pSheX-gaGxtP5t-56" value="After the green environment is ready and tested,&amp;nbsp;&lt;div&gt;production traffic is redirected from blue to green&lt;/div&gt;" style="text;html=1;align=center;verticalAlign=middle;resizable=0;points=[];autosize=1;strokeColor=none;fillColor=none;" vertex="1" parent="MGUii8pSheX-gaGxtP5t-54">
          <mxGeometry x="190" y="390" width="280" height="40" as="geometry" />
        </mxCell>
        <mxCell id="MGUii8pSheX-gaGxtP5t-57" value="" style="sketch=0;points=[[0,0,0],[0.25,0,0],[0.5,0,0],[0.75,0,0],[1,0,0],[0,1,0],[0.25,1,0],[0.5,1,0],[0.75,1,0],[1,1,0],[0,0.25,0],[0,0.5,0],[0,0.75,0],[1,0.25,0],[1,0.5,0],[1,0.75,0]];outlineConnect=0;fontColor=#232F3E;fillColor=#E7157B;strokeColor=#ffffff;dashed=0;verticalLabelPosition=bottom;verticalAlign=top;align=center;html=1;fontSize=12;fontStyle=0;aspect=fixed;shape=mxgraph.aws4.resourceIcon;resIcon=mxgraph.aws4.sqs;" vertex="1" parent="MGUii8pSheX-gaGxtP5t-54">
          <mxGeometry x="570" y="298" width="78" height="78" as="geometry" />
        </mxCell>
        <mxCell id="MGUii8pSheX-gaGxtP5t-58" value="Dead Letter Queue" style="text;html=1;align=center;verticalAlign=middle;resizable=0;points=[];autosize=1;strokeColor=none;fillColor=none;" vertex="1" parent="MGUii8pSheX-gaGxtP5t-54">
          <mxGeometry x="544" y="380" width="130" height="30" as="geometry" />
        </mxCell>
        <mxCell id="MGUii8pSheX-gaGxtP5t-59" value="AWS CodePipeline" style="text;html=1;align=center;verticalAlign=middle;resizable=0;points=[];autosize=1;strokeColor=none;fillColor=none;" vertex="1" parent="MGUii8pSheX-gaGxtP5t-3">
          <mxGeometry x="24" y="358" width="130" height="30" as="geometry" />
        </mxCell>
        <mxCell id="MGUii8pSheX-gaGxtP5t-60" value="" style="sketch=0;points=[[0,0,0],[0.25,0,0],[0.5,0,0],[0.75,0,0],[1,0,0],[0,1,0],[0.25,1,0],[0.5,1,0],[0.75,1,0],[1,1,0],[0,0.25,0],[0,0.5,0],[0,0.75,0],[1,0.25,0],[1,0.5,0],[1,0.75,0]];outlineConnect=0;fontColor=#232F3E;fillColor=#8C4FFF;strokeColor=#ffffff;dashed=0;verticalLabelPosition=bottom;verticalAlign=top;align=center;html=1;fontSize=12;fontStyle=0;aspect=fixed;shape=mxgraph.aws4.resourceIcon;resIcon=mxgraph.aws4.route_53;" vertex="1" parent="MGUii8pSheX-gaGxtP5t-3">
          <mxGeometry x="50" y="560" width="78" height="78" as="geometry" />
        </mxCell>
        <mxCell id="MGUii8pSheX-gaGxtP5t-61" value="" style="sketch=0;points=[[0,0,0],[0.25,0,0],[0.5,0,0],[0.75,0,0],[1,0,0],[0,1,0],[0.25,1,0],[0.5,1,0],[0.75,1,0],[1,1,0],[0,0.25,0],[0,0.5,0],[0,0.75,0],[1,0.25,0],[1,0.5,0],[1,0.75,0]];outlineConnect=0;fontColor=#232F3E;fillColor=#DD344C;strokeColor=#ffffff;dashed=0;verticalLabelPosition=bottom;verticalAlign=top;align=center;html=1;fontSize=12;fontStyle=0;aspect=fixed;shape=mxgraph.aws4.resourceIcon;resIcon=mxgraph.aws4.waf;" vertex="1" parent="MGUii8pSheX-gaGxtP5t-3">
          <mxGeometry x="167.5" y="560" width="78" height="78" as="geometry" />
        </mxCell>
        <mxCell id="MGUii8pSheX-gaGxtP5t-62" value="Amazon Route 53" style="text;html=1;align=center;verticalAlign=middle;resizable=0;points=[];autosize=1;strokeColor=none;fillColor=none;" vertex="1" parent="MGUii8pSheX-gaGxtP5t-3">
          <mxGeometry x="29" y="638" width="120" height="30" as="geometry" />
        </mxCell>
        <mxCell id="MGUii8pSheX-gaGxtP5t-63" value="" style="sketch=0;points=[[0,0,0],[0.25,0,0],[0.5,0,0],[0.75,0,0],[1,0,0],[0,1,0],[0.25,1,0],[0.5,1,0],[0.75,1,0],[1,1,0],[0,0.25,0],[0,0.5,0],[0,0.75,0],[1,0.25,0],[1,0.5,0],[1,0.75,0]];outlineConnect=0;fontColor=#232F3E;fillColor=#8C4FFF;strokeColor=#ffffff;dashed=0;verticalLabelPosition=bottom;verticalAlign=top;align=center;html=1;fontSize=12;fontStyle=0;aspect=fixed;shape=mxgraph.aws4.resourceIcon;resIcon=mxgraph.aws4.cloudfront;" vertex="1" parent="MGUii8pSheX-gaGxtP5t-3">
          <mxGeometry x="289" y="562" width="78" height="78" as="geometry" />
        </mxCell>
        <mxCell id="MGUii8pSheX-gaGxtP5t-64" value="" style="endArrow=classic;html=1;rounded=0;exitX=1;exitY=0.5;exitDx=0;exitDy=0;exitPerimeter=0;entryX=0;entryY=0.5;entryDx=0;entryDy=0;entryPerimeter=0;" edge="1" parent="MGUii8pSheX-gaGxtP5t-3" source="MGUii8pSheX-gaGxtP5t-60" target="MGUii8pSheX-gaGxtP5t-61">
          <mxGeometry width="50" height="50" relative="1" as="geometry">
            <mxPoint x="550" y="600" as="sourcePoint" />
            <mxPoint x="600" y="550" as="targetPoint" />
          </mxGeometry>
        </mxCell>
        <mxCell id="MGUii8pSheX-gaGxtP5t-65" value="" style="endArrow=classic;html=1;rounded=0;exitX=1;exitY=0.5;exitDx=0;exitDy=0;exitPerimeter=0;entryX=0;entryY=0.5;entryDx=0;entryDy=0;entryPerimeter=0;" edge="1" parent="MGUii8pSheX-gaGxtP5t-3" source="MGUii8pSheX-gaGxtP5t-61" target="MGUii8pSheX-gaGxtP5t-63">
          <mxGeometry width="50" height="50" relative="1" as="geometry">
            <mxPoint x="550" y="600" as="sourcePoint" />
            <mxPoint x="600" y="550" as="targetPoint" />
          </mxGeometry>
        </mxCell>
        <mxCell id="MGUii8pSheX-gaGxtP5t-66" value="" style="endArrow=classic;html=1;rounded=0;entryX=0;entryY=0.5;entryDx=0;entryDy=0;entryPerimeter=0;" edge="1" parent="MGUii8pSheX-gaGxtP5t-3" target="MGUii8pSheX-gaGxtP5t-31">
          <mxGeometry width="50" height="50" relative="1" as="geometry">
            <mxPoint x="370" y="630" as="sourcePoint" />
            <mxPoint x="600" y="550" as="targetPoint" />
            <Array as="points">
              <mxPoint x="510" y="630" />
              <mxPoint x="510" y="907" />
            </Array>
          </mxGeometry>
        </mxCell>
        <mxCell id="MGUii8pSheX-gaGxtP5t-67" style="edgeStyle=orthogonalEdgeStyle;rounded=0;orthogonalLoop=1;jettySize=auto;html=1;startArrow=classic;startFill=1;" edge="1" parent="MGUii8pSheX-gaGxtP5t-3" source="MGUii8pSheX-gaGxtP5t-68" target="MGUii8pSheX-gaGxtP5t-63">
          <mxGeometry relative="1" as="geometry" />
        </mxCell>
        <mxCell id="MGUii8pSheX-gaGxtP5t-68" value="" style="sketch=0;points=[[0,0,0],[0.25,0,0],[0.5,0,0],[0.75,0,0],[1,0,0],[0,1,0],[0.25,1,0],[0.5,1,0],[0.75,1,0],[1,1,0],[0,0.25,0],[0,0.5,0],[0,0.75,0],[1,0.25,0],[1,0.5,0],[1,0.75,0]];outlineConnect=0;fontColor=#232F3E;fillColor=#DD344C;strokeColor=#ffffff;dashed=0;verticalLabelPosition=bottom;verticalAlign=top;align=center;html=1;fontSize=12;fontStyle=0;aspect=fixed;shape=mxgraph.aws4.resourceIcon;resIcon=mxgraph.aws4.certificate_manager_3;" vertex="1" parent="MGUii8pSheX-gaGxtP5t-3">
          <mxGeometry x="289" y="868" width="78" height="78" as="geometry" />
        </mxCell>
        <mxCell id="MGUii8pSheX-gaGxtP5t-69" value="ACM" style="text;html=1;align=center;verticalAlign=middle;resizable=0;points=[];autosize=1;strokeColor=none;fillColor=none;" vertex="1" parent="MGUii8pSheX-gaGxtP5t-3">
          <mxGeometry x="299" y="958" width="50" height="30" as="geometry" />
        </mxCell>
        <mxCell id="MGUii8pSheX-gaGxtP5t-70" value="Issue TLS certificate" style="text;html=1;align=center;verticalAlign=middle;resizable=0;points=[];autosize=1;strokeColor=none;fillColor=none;" vertex="1" parent="MGUii8pSheX-gaGxtP5t-3">
          <mxGeometry x="119" y="870" width="130" height="30" as="geometry" />
        </mxCell>
        <mxCell id="MGUii8pSheX-gaGxtP5t-71" value="deploy&amp;amp;Test" style="text;html=1;align=center;verticalAlign=middle;resizable=0;points=[];autosize=1;strokeColor=none;fillColor=none;" vertex="1" parent="MGUii8pSheX-gaGxtP5t-3">
          <mxGeometry x="128" y="284" width="90" height="30" as="geometry" />
        </mxCell>
        <mxCell id="MGUii8pSheX-gaGxtP5t-72" value="&lt;div style=&quot;text-align: start;&quot;&gt;&lt;br&gt;&lt;/div&gt;" style="text;html=1;align=center;verticalAlign=middle;resizable=0;points=[];autosize=1;strokeColor=none;fillColor=none;" vertex="1" parent="MGUii8pSheX-gaGxtP5t-3">
          <mxGeometry x="229" y="1018" width="20" height="30" as="geometry" />
        </mxCell>
        <mxCell id="MGUii8pSheX-gaGxtP5t-73" style="edgeStyle=orthogonalEdgeStyle;rounded=0;orthogonalLoop=1;jettySize=auto;html=1;entryX=0.475;entryY=-0.133;entryDx=0;entryDy=0;entryPerimeter=0;startArrow=classic;startFill=1;" edge="1" parent="MGUii8pSheX-gaGxtP5t-3" source="MGUii8pSheX-gaGxtP5t-68" target="MGUii8pSheX-gaGxtP5t-62">
          <mxGeometry relative="1" as="geometry" />
        </mxCell>
        <mxCell id="MGUii8pSheX-gaGxtP5t-74" value="provide TLS encryption for&amp;nbsp;&lt;div&gt;CloudFront content delivery&lt;/div&gt;" style="text;html=1;align=center;verticalAlign=middle;resizable=0;points=[];autosize=1;strokeColor=none;fillColor=none;" vertex="1" parent="MGUii8pSheX-gaGxtP5t-3">
          <mxGeometry x="154" y="725" width="170" height="40" as="geometry" />
        </mxCell>
        <mxCell id="MGUii8pSheX-gaGxtP5t-75" value="Originally, the traffic is directed to blue environment" style="text;html=1;align=center;verticalAlign=middle;resizable=0;points=[];autosize=1;strokeColor=none;fillColor=none;" vertex="1" parent="MGUii8pSheX-gaGxtP5t-3">
          <mxGeometry x="525" y="668" width="300" height="30" as="geometry" />
        </mxCell>
        <mxCell id="MGUii8pSheX-gaGxtP5t-76" style="edgeStyle=orthogonalEdgeStyle;rounded=0;orthogonalLoop=1;jettySize=auto;html=1;" edge="1" parent="MGUii8pSheX-gaGxtP5t-3" source="MGUii8pSheX-gaGxtP5t-77" target="MGUii8pSheX-gaGxtP5t-80">
          <mxGeometry relative="1" as="geometry">
            <Array as="points">
              <mxPoint x="230" y="149" />
              <mxPoint x="230" y="149" />
            </Array>
          </mxGeometry>
        </mxCell>
        <mxCell id="MGUii8pSheX-gaGxtP5t-77" value="" style="outlineConnect=0;dashed=0;verticalLabelPosition=bottom;verticalAlign=top;align=center;html=1;shape=mxgraph.aws3.template;fillColor=#759C3E;gradientColor=none;" vertex="1" parent="MGUii8pSheX-gaGxtP5t-3">
          <mxGeometry x="64" y="117" width="55.5" height="64.5" as="geometry" />
        </mxCell>
        <mxCell id="MGUii8pSheX-gaGxtP5t-78" value="Template" style="text;html=1;align=center;verticalAlign=middle;resizable=0;points=[];autosize=1;strokeColor=none;fillColor=none;" vertex="1" parent="MGUii8pSheX-gaGxtP5t-3">
          <mxGeometry x="56.75" y="194" width="70" height="30" as="geometry" />
        </mxCell>
        <mxCell id="MGUii8pSheX-gaGxtP5t-79" style="edgeStyle=orthogonalEdgeStyle;rounded=0;orthogonalLoop=1;jettySize=auto;html=1;" edge="1" parent="MGUii8pSheX-gaGxtP5t-3" source="MGUii8pSheX-gaGxtP5t-80" target="MGUii8pSheX-gaGxtP5t-54">
          <mxGeometry relative="1" as="geometry" />
        </mxCell>
        <mxCell id="MGUii8pSheX-gaGxtP5t-80" value="AWS CloudFormation" style="sketch=0;outlineConnect=0;fontColor=#232F3E;gradientColor=none;strokeColor=#ffffff;fillColor=#232F3E;dashed=0;verticalLabelPosition=middle;verticalAlign=bottom;align=center;html=1;whiteSpace=wrap;fontSize=10;fontStyle=1;spacing=3;shape=mxgraph.aws4.productIcon;prIcon=mxgraph.aws4.cloudformation;" vertex="1" parent="MGUii8pSheX-gaGxtP5t-3">
          <mxGeometry x="284" y="117" width="80" height="110" as="geometry" />
        </mxCell>
        <mxCell id="MGUii8pSheX-gaGxtP5t-81" value="Pass code test" style="text;html=1;align=center;verticalAlign=middle;resizable=0;points=[];autosize=1;strokeColor=none;fillColor=none;" vertex="1" parent="MGUii8pSheX-gaGxtP5t-3">
          <mxGeometry x="288" y="338" width="100" height="30" as="geometry" />
        </mxCell>
        <mxCell id="MGUii8pSheX-gaGxtP5t-82" value="Provide configuration files" style="text;html=1;align=center;verticalAlign=middle;resizable=0;points=[];autosize=1;strokeColor=none;fillColor=none;" vertex="1" parent="MGUii8pSheX-gaGxtP5t-3">
          <mxGeometry x="124" y="117" width="160" height="30" as="geometry" />
        </mxCell>
        <mxCell id="MGUii8pSheX-gaGxtP5t-88" value="" style="sketch=0;points=[[0,0,0],[0.25,0,0],[0.5,0,0],[0.75,0,0],[1,0,0],[0,1,0],[0.25,1,0],[0.5,1,0],[0.75,1,0],[1,1,0],[0,0.25,0],[0,0.5,0],[0,0.75,0],[1,0.25,0],[1,0.5,0],[1,0.75,0]];outlineConnect=0;fontColor=#232F3E;fillColor=#8C4FFF;strokeColor=#ffffff;dashed=0;verticalLabelPosition=bottom;verticalAlign=top;align=center;html=1;fontSize=12;fontStyle=0;aspect=fixed;shape=mxgraph.aws4.resourceIcon;resIcon=mxgraph.aws4.athena;" vertex="1" parent="MGUii8pSheX-gaGxtP5t-3">
          <mxGeometry x="1530" y="510" width="78" height="78" as="geometry" />
        </mxCell>
        <mxCell id="MGUii8pSheX-gaGxtP5t-89" value="Athena" style="text;html=1;align=center;verticalAlign=middle;resizable=0;points=[];autosize=1;strokeColor=none;fillColor=none;" vertex="1" parent="MGUii8pSheX-gaGxtP5t-3">
          <mxGeometry x="1539" y="588" width="60" height="30" as="geometry" />
        </mxCell>
        <mxCell id="MGUii8pSheX-gaGxtP5t-90" value="Amazon QuickSight" style="sketch=0;outlineConnect=0;fontColor=#232F3E;gradientColor=none;strokeColor=#ffffff;fillColor=#232F3E;dashed=0;verticalLabelPosition=middle;verticalAlign=bottom;align=center;html=1;whiteSpace=wrap;fontSize=10;fontStyle=1;spacing=3;shape=mxgraph.aws4.productIcon;prIcon=mxgraph.aws4.quicksight;" vertex="1" parent="MGUii8pSheX-gaGxtP5t-3">
          <mxGeometry x="1530" y="738" width="80" height="110" as="geometry" />
        </mxCell>
        <mxCell id="MGUii8pSheX-gaGxtP5t-91" value="S3" style="text;html=1;align=center;verticalAlign=middle;resizable=0;points=[];autosize=1;strokeColor=none;fillColor=none;" vertex="1" parent="MGUii8pSheX-gaGxtP5t-3">
          <mxGeometry x="1398" y="710" width="40" height="30" as="geometry" />
        </mxCell>
        <mxCell id="MGUii8pSheX-gaGxtP5t-92" value="" style="endArrow=classic;html=1;rounded=0;exitX=0;exitY=0.75;exitDx=0;exitDy=0;exitPerimeter=0;entryX=1;entryY=0.25;entryDx=0;entryDy=0;entryPerimeter=0;" edge="1" parent="MGUii8pSheX-gaGxtP5t-3" source="MGUii8pSheX-gaGxtP5t-88" target="MGUii8pSheX-gaGxtP5t-48">
          <mxGeometry width="50" height="50" relative="1" as="geometry">
            <mxPoint x="560" y="490" as="sourcePoint" />
            <mxPoint x="610" y="440" as="targetPoint" />
            <Array as="points">
              <mxPoint x="1490" y="569" />
              <mxPoint x="1490" y="650" />
            </Array>
          </mxGeometry>
        </mxCell>
        <mxCell id="MGUii8pSheX-gaGxtP5t-83" value="" style="sketch=0;outlineConnect=0;fontColor=#232F3E;gradientColor=none;fillColor=#232F3D;strokeColor=none;dashed=0;verticalLabelPosition=bottom;verticalAlign=top;align=center;html=1;fontSize=12;fontStyle=0;aspect=fixed;pointerEvents=1;shape=mxgraph.aws4.user;" vertex="1" parent="1">
          <mxGeometry x="-452" y="304" width="78" height="78" as="geometry" />
        </mxCell>
        <mxCell id="MGUii8pSheX-gaGxtP5t-84" value="User" style="text;html=1;align=center;verticalAlign=middle;resizable=0;points=[];autosize=1;strokeColor=none;fillColor=none;" vertex="1" parent="1">
          <mxGeometry x="-438" y="380" width="50" height="30" as="geometry" />
        </mxCell>
        <mxCell id="MGUii8pSheX-gaGxtP5t-85" value="" style="endArrow=classic;html=1;rounded=0;" edge="1" parent="1" source="MGUii8pSheX-gaGxtP5t-83">
          <mxGeometry width="50" height="50" relative="1" as="geometry">
            <mxPoint x="500" y="440" as="sourcePoint" />
            <mxPoint y="343" as="targetPoint" />
          </mxGeometry>
        </mxCell>
        <mxCell id="MGUii8pSheX-gaGxtP5t-86" style="edgeStyle=orthogonalEdgeStyle;rounded=0;orthogonalLoop=1;jettySize=auto;html=1;entryX=0;entryY=0.5;entryDx=0;entryDy=0;entryPerimeter=0;" edge="1" parent="1" source="MGUii8pSheX-gaGxtP5t-1" target="MGUii8pSheX-gaGxtP5t-77">
          <mxGeometry relative="1" as="geometry" />
        </mxCell>
        <mxCell id="MGUii8pSheX-gaGxtP5t-87" style="edgeStyle=orthogonalEdgeStyle;rounded=0;orthogonalLoop=1;jettySize=auto;html=1;entryX=0;entryY=0.75;entryDx=0;entryDy=0;entryPerimeter=0;" edge="1" parent="1" source="MGUii8pSheX-gaGxtP5t-1" target="MGUii8pSheX-gaGxtP5t-52">
          <mxGeometry relative="1" as="geometry">
            <Array as="points">
              <mxPoint x="-185" y="-80" />
              <mxPoint x="-185" y="93" />
            </Array>
          </mxGeometry>
        </mxCell>
        <mxCell id="MGUii8pSheX-gaGxtP5t-93" value="" style="endArrow=classic;html=1;rounded=0;" edge="1" parent="1" source="MGUii8pSheX-gaGxtP5t-90">
          <mxGeometry width="50" height="50" relative="1" as="geometry">
            <mxPoint x="1260" y="420" as="sourcePoint" />
            <mxPoint x="1390" y="440" as="targetPoint" />
            <Array as="points">
              <mxPoint x="1440" y="540" />
              <mxPoint x="1440" y="440" />
            </Array>
          </mxGeometry>
        </mxCell>
      </root>
    </mxGraphModel>
  </diagram>
</mxfile>
